<?xml version="1.0" encoding="UTF-8" standalone="no"?>
<svg version = "1.1"
     baseProfile="full"
	 xmlns="http://www.w3.org/2000/svg" 
	 width="100%" height="100%" viewBox="0 0 380.6 76.2">
	<path fill="#c3143c" d="M64.6 1.2c-3.3.5-5.6 3.7-5.6 7v43c0 
        .2-.2.3-.3.2l-47-48.2c-2-2-5-2.6-7.5-1.6S0 
        5.2 0 8v60.3c0 4 3.7 7.4 8 6.7 3.2-.5 5.5-3.7 5.5-7V25c0-.2.2-.2.3 0l47 
        48c1.3 1.4 3 2.2 5 2.2.7 0 1.6-.2 2.4-.5 2.5-1 4.2-3.5 
        4.2-6.3V8c0-4.2-3.6-7.5-7.8-6.8zM116 14.7h51.4c3.4 0 
        6.5-2.3 7-5.6.7-4.2-2.6-7.8-6.7-7.8h-59c-3.7 0-6.8 3-6.8 
        6.8v60.4c0 3.7 3 6.8 6.7 6.8h58.6c3.4 0 6.5-2.3 
        7-5.6.7-4.3-2.6-8-6.7-8H116c-.4 0-.6 0-.6-.4V45.4c0-.3.2-.5.5-.5h51.6c4 0 
        7.4-3.8 6.7-8-.5-3.3-3.7-5.6-7-5.6H116c-.4 0-.6-.2-.6-.5V15c.2-.3.4-.5.7-.5zm257.7 
        1.7V16l3.8-4c2.6-2.6 3.2-6.4 1.2-9-2.5-3.6-7.4-3.8-10.3-1L364 6.5c0 .2-.3.2-.5 0-7.7-5-17.4-7.5-27.7-5.7-15.7 
        2.7-28.3 15.3-31 31-4.3 26 18 48.4 44 44 16-2.5 28.7-15.3 31.3-31 1.7-10.7-1-20.5-6.3-28.3zm-36 
        45.8c-9.8-1.8-17.6-9.7-19.4-19.3-3.3-17.4 11.7-32.4 29-29 4.7.8 9 3 12.3 
        6.4l.3.3c3.3 3.4 5.7 7.7 6.6 12.5 3.3 17.4-11.7 32.4-29 29zm-76-13.8V48c8.8-4.2 
        14.6-13.4 14-23.8-1-13-12.5-23-25.7-23h-39c-3.7 0-6.8 3-6.8 6.7v60c0 3.5 2.3 6.6 5.6 7 
        4.2.8 8-2.5 8-6.6V51c0-.3 0-.5.4-.5h27.1C247 52.6 266 73 266 73c1.3 1.5 3.2 2.2 5 2.2 1.5 0 3-.5 4.2-1.5 3-2.5 
        3-7.3.4-10.2l-14-15zM251 37h-32.7c-.3 0-.5-.2-.5-.5V15.2c0-.3.2-.5.5-.5h32.4c5.3 
        0 10.2 3.6 11.2 8.8 1.4 7.2-4 13.5-11 13.5z">
	</path>
</svg>